# xmcd CD database file
#
# Track frame offsets:
#	150
#	20541
#	43807
#	71564
#	95721
#	124939
#	133991
#	171404
#	190041
#	222478
#	243630
#	266531
#
# Disc length: 3825 seconds
#
# Revision: 1
# Processed by: cddbd v1.5.1PL2 Copyright (c) Steve Scherf et al.
# Submitted via: CDex 1.51
#
DISCID=bf0eef0c
DTITLE=Dizzy Krisch Vibraphone Quartett - Tribute To Milt Jackson
DYEAR=2001
DGENRE=Jazz
TTITLE0=Baden-Baden (Milt Jackson)
TTITLE1=Autumn Breeze (Milt Jackson)
TTITLE2=Heartstrings (Milt Jackson)
TTITLE3=Hush-A-Bye (Traditional)
TTITLE4=Blues in C Minor (Milt Jackson)
TTITLE5=Cut (Dizzy Krisch)
TTITLE6=Black Orpheus (Luis Bonfa)
TTITLE7=On Green Dolphin Street
TTITLE8=What Now My Love (Gilbert Becaud)
TTITLE9=Nature Boy (Eden Ahbez)
TTITLE10=Bags Groove (Milt Jackson)
TTITLE11=Angel Eyes (Matt Dennis-Earl Brent)
EXTD=YEAR: 2001
EXTT0=
EXTT1=
EXTT2=
EXTT3=
EXTT4=
EXTT5=
EXTT6=
EXTT7=
EXTT8=
EXTT9=
EXTT10=
EXTT11=
PLAYORDER=
